<?xml version="1.0" encoding="utf-8"?>
<!-- Generator: Adobe Illustrator 22.1.0, SVG Export Plug-In . SVG Version: 6.00 Build 0)  -->
<svg version="1.1" id="Capa_1" xmlns="http://www.w3.org/2000/svg" xmlns:xlink="http://www.w3.org/1999/xlink" x="0px" y="0px"
	 viewBox="0 0 135 55" style="enable-background:new 0 0 135 55;" xml:space="preserve">
<style type="text/css">
	.st0{fill:#FFFFFF;}
</style>
<g>
	<rect x="2.5" y="3.3" class="st0" width="17.6" height="48.4"/>
	<g>
		<path class="st0" d="M34.1,37.7h-1c-0.9,0-1.4,0.4-1.4,1.6v1.8h2.3c0.2,0,0.4,0.1,0.4,0.3v0.2c0,0.2-0.2,0.3-0.4,0.3h-2.3v9.4
			c0,0.2-0.2,0.4-0.4,0.4h-0.1c-0.2,0-0.4-0.2-0.4-0.4v-9.4h-1.9c-0.2,0-0.4-0.1-0.4-0.3v-0.2c0-0.2,0.2-0.3,0.4-0.3h1.9v-1.8
			c0-1.7,0.8-2.3,2.2-2.3c0.6,0,0.8,0,1,0.1c0.3,0,0.4,0.2,0.4,0.3v0.1C34.5,37.6,34.4,37.7,34.1,37.7"/>
		<path class="st0" d="M40.1,41.7c-0.7,0-1.6,0.2-2.7,0.9v8.6c0,0.2-0.2,0.4-0.4,0.4h-0.1c-0.2,0-0.4-0.2-0.4-0.4v-9.8
			c0-0.2,0.1-0.4,0.4-0.4H37c0.2,0,0.4,0.2,0.4,0.4v0.4c1-0.6,1.8-0.9,2.7-0.9c0.3,0,0.5,0.1,0.5,0.3v0.2
			C40.7,41.7,40.4,41.7,40.1,41.7"/>
		<path class="st0" d="M45.9,51.7c-2.7,0-4-1.7-4-4.7v-1.4c0-3,1.4-4.7,4-4.7c2.7,0,4,1.7,4,4.7V47C49.9,50,48.5,51.7,45.9,51.7
			 M49,45.7c0-2.4-0.9-3.9-3.2-3.9c-2.3,0-3.2,1.5-3.2,3.9V47c0,2.4,0.9,3.9,3.2,3.9c2.3,0,3.2-1.5,3.2-3.9V45.7z"/>
		<path class="st0" d="M63.9,51.6h-0.2c-0.2,0-0.3-0.2-0.3-0.4v-7c0-1.9-0.9-2.5-2.3-2.5c-0.9,0-1.8,0.3-2.6,0.7
			c0.2,0.5,0.3,1,0.3,1.7v7.1c0,0.2-0.1,0.4-0.3,0.4h-0.3c-0.2,0-0.3-0.2-0.3-0.4v-7.1c0-1.8-0.8-2.4-1.8-2.4
			c-0.9,0-1.9,0.4-2.8,0.8v8.7c0,0.2-0.1,0.4-0.3,0.4h-0.3c-0.2,0-0.3-0.2-0.3-0.4v-9.8c0-0.2,0.1-0.4,0.4-0.4h0.2
			c0.2,0,0.4,0.2,0.4,0.4v0.4c0.8-0.4,1.9-0.8,3-0.8c0.7,0,1.4,0.2,1.9,0.8c1-0.5,2.1-0.8,3.2-0.8c1.6,0,3,0.9,3,3.2v7
			C64.2,51.4,64.1,51.6,63.9,51.6"/>
		<path class="st0" d="M74.9,51.7c-0.3,0-0.7,0.1-1,0.1c-1.4,0-2.2-0.4-2.2-2.1v-7.7h-1.9c-0.2,0-0.4-0.1-0.4-0.3v-0.2
			c0-0.2,0.2-0.3,0.4-0.3h1.9v-2c0-0.2,0.1-0.4,0.3-0.4h0.2c0.2,0,0.3,0.2,0.3,0.4v2h2.3c0.2,0,0.4,0.1,0.4,0.3v0.2
			c0,0.2-0.2,0.3-0.4,0.3h-2.3v7.7c0,1.2,0.5,1.4,1.4,1.4h0.9c0.3,0,0.4,0.1,0.4,0.3v0.1C75.2,51.5,75.1,51.6,74.9,51.7"/>
		<path class="st0" d="M84.3,51.6h-0.2c-0.2,0-0.3-0.2-0.3-0.4v-6.5c0-1.9-0.8-3-2.9-3c-0.8,0-1.9,0.1-2.6,0.4v9.1
			c0,0.2-0.1,0.4-0.3,0.4h-0.2c-0.2,0-0.3-0.2-0.3-0.4V37.4c0-0.2,0.1-0.4,0.3-0.4h0.2c0.2,0,0.3,0.2,0.3,0.4v3.9
			C79,41.1,80,41,80.9,41c2.7,0,3.7,1.6,3.7,3.8v6.5C84.6,51.4,84.5,51.6,84.3,51.6"/>
		<path class="st0" d="M94.5,46.5h-6.6V47c0,3.3,1.6,4,3.6,4c0.9,0,1.9-0.1,2.9-0.3c0,0,0.1,0,0.1,0c0.2,0,0.3,0.1,0.3,0.3V51
			c0,0.2-0.1,0.3-0.4,0.4c-0.9,0.2-2.1,0.3-2.9,0.3C89,51.7,87,50.7,87,47v-1.3c0-2.7,1.4-4.7,4-4.7c2.7,0,3.9,1.9,3.9,4.7v0.5
			C94.8,46.4,94.7,46.5,94.5,46.5 M94,45.6c0-2.5-0.8-3.9-3-3.9c-2.2,0-3.1,1.6-3.1,3.9v0.1H94V45.6z"/>
		<path class="st0" d="M107,51.5c-0.8,0.1-1.7,0.2-2.4,0.2c-2.8,0-3.9-2.2-3.9-4.7v-1.3c0-2.6,1.1-4.7,3.9-4.7
			c0.6,0,1.5,0.1,2.4,0.2c0.3,0,0.4,0.1,0.4,0.4v0.1c0,0.2-0.1,0.3-0.3,0.3H107c-0.9-0.1-1.7-0.2-2.3-0.2c-2.2,0-3,1.6-3,3.9V47
			c0,2.4,0.8,4,3,4c0.6,0,1.4-0.1,2.3-0.2h0.1c0.2,0,0.3,0.1,0.3,0.3v0.1C107.4,51.4,107.3,51.5,107,51.5"/>
		<path class="st0" d="M112.8,51.7c-2.7,0-4-1.7-4-4.7v-1.4c0-3,1.4-4.7,4-4.7c2.7,0,4,1.7,4,4.7V47C116.9,50,115.5,51.7,112.8,51.7
			 M116,45.7c0-2.4-0.9-3.9-3.2-3.9c-2.3,0-3.2,1.5-3.2,3.9V47c0,2.4,0.9,3.9,3.2,3.9c2.3,0,3.2-1.5,3.2-3.9V45.7z"/>
		<path class="st0" d="M122.9,41.7c-0.7,0-1.6,0.2-2.7,0.9v8.6c0,0.2-0.2,0.4-0.4,0.4h-0.1c-0.2,0-0.4-0.2-0.4-0.4v-9.8
			c0-0.2,0.1-0.4,0.4-0.4h0.2c0.2,0,0.4,0.2,0.4,0.4v0.4c1-0.6,1.8-0.9,2.7-0.9c0.3,0,0.5,0.1,0.5,0.3v0.2
			C123.4,41.7,123.2,41.7,122.9,41.7"/>
		<path class="st0" d="M132,46.5h-6.6V47c0,3.3,1.6,4,3.6,4c0.9,0,1.9-0.1,2.9-0.3c0,0,0.1,0,0.1,0c0.2,0,0.3,0.1,0.3,0.3V51
			c0,0.2-0.1,0.3-0.4,0.4c-0.9,0.2-2.1,0.3-2.9,0.3c-2.4,0-4.4-1.1-4.4-4.8v-1.3c0-2.7,1.4-4.7,4-4.7c2.7,0,3.9,1.9,3.9,4.7v0.5
			C132.4,46.4,132.2,46.5,132,46.5 M131.5,45.6c0-2.5-0.8-3.9-3-3.9c-2.2,0-3.1,1.6-3.1,3.9v0.1h6.1V45.6z"/>
	</g>
	<g>
		<path class="st0" d="M28.5,17.1c0-7.3,4-12.4,11.1-12.4c1.8,0,4,0.2,6.2,0.8v7.2h-0.1L42.3,6c-0.3-0.5-0.5-0.6-1.1-0.7
			c-0.5-0.1-1-0.1-1.4-0.1c-5.2,0-7.1,4.9-7.1,11.8c0,7.5,2.3,11.8,7.4,11.8c0.4,0,0.8,0,1.2-0.1c0.6-0.1,0.8-0.2,1-0.6l3.5-6.9h0.1
			v7.5c-2.1,0.4-4.3,0.6-5.7,0.6C32,29.4,28.5,24.3,28.5,17.1"/>
		<path class="st0" d="M64,27.6l2.3,1.4V29h-8.6V29l2.2-1.4c0.4-0.2,0.4-0.4,0.4-0.7c0-0.2,0.1-5.5,0.1-6.9c0-4.2-0.9-5.9-2.9-5.9
			c-1.6,0-2.8,1-3.6,2.5v10.2c0,0.4,0,0.5,0.4,0.7l2.3,1.4V29h-8.6V29l2.3-1.4c0.4-0.2,0.4-0.4,0.4-0.8V7.2c0-0.4,0-0.6-0.4-0.8
			l-2.3-1.4V5l5.9-0.7v12.1c0.8-3,2.6-4.3,5.1-4.3c3,0,4.7,2.1,4.7,6.8c0,1.7,0,5.2-0.1,7.9C63.6,27.3,63.6,27.4,64,27.6"/>
		<path class="st0" d="M76.6,17.3v-0.1c0-2.6-1.2-4.5-3.7-4.5c-0.9,0-0.9,0-1.1,0.5l-2.1,4.5h-0.1l-1.5-4.4c1.9-0.8,3.8-1.1,5.7-1.1
			c2,0,3.3,0.3,4.3,1.3c1,1,1.5,2.7,1.5,5.6v0.5l-0.1,5.6c0,1.5,0.3,2.3,1.2,2.3c0.6,0,1-0.4,1.1-1h0.1c0,0.3-0.1,0.7-0.2,1.1
			c-0.4,1-1.3,1.8-2.6,1.8c-1.5,0-2.7-1.1-2.7-3.6c-0.7,2.3-2.4,3.6-4.6,3.6c-2.4,0-4.4-1.6-4.4-4.5c0-3.3,2.8-5,5.5-5
			c1.2,0,2.5,0.3,3.6,1.1L76.6,17.3z M70.8,24.4c0,1.8,1.1,3,2.6,3c1.2,0,2.4-0.8,3.1-2v-0.1l0.1-4.2c-0.7-0.2-1.3-0.3-2-0.3
			C72.1,20.8,70.8,22.5,70.8,24.4"/>
		<path class="st0" d="M98.7,26.8c0,0.4,0,0.5,0.4,0.8l2.3,1.4V29h-8.6V29l2.2-1.4c0.4-0.2,0.4-0.4,0.4-0.7c0-0.2,0.1-5.5,0.1-6.9
			c0-4.2-0.9-5.9-2.9-5.9c-1.6,0-2.8,1-3.6,2.5v10.2c0,0.4,0,0.5,0.4,0.7l2.3,1.4V29H83V29l2.3-1.4c0.4-0.2,0.4-0.4,0.4-0.8V15
			c0-0.4,0-0.5-0.4-0.8L83,12.5v-0.1H89v4c0.8-3,2.6-4.3,5.1-4.3c3,0,4.7,2.1,4.7,6.8C98.7,20.6,98.7,24.1,98.7,26.8"/>
		<path class="st0" d="M109.3,12.1c1.5,0,2.8,0.4,3.9,1.1c0.3,0.2,0.4,0.2,0.6-0.1l3.3-4.5l0.1,0v5.1H114c1,0.8,1.9,2,1.9,4
			c0,3.5-3.1,5.4-6.5,5.4c-0.7,0-1.4-0.1-2-0.2c-1.4,0.4-1.9,1.2-1.9,1.8c0,0.9,1,1.6,2.9,1.6h2.8c3.9,0,6.1,1.8,6.1,4.8
			c0,3.9-3.9,5.9-8.1,5.9c-3.4,0-7-1.3-7-4.1c0-1.7,1.4-3.1,4.1-3.7c-1.8-0.3-2.9-1.6-2.9-3c0-1.6,1.3-2.9,3.6-3.4
			c-2.3-0.7-3.9-2.5-3.9-5.2C103,14.1,106,12.1,109.3,12.1 M106.6,29.4c-1.3,0.6-2,1.6-2,3.1c0,2.7,2.7,4.1,5.3,4.1
			c2.6,0,5.1-1.2,5.1-3.9c0-1.7-1.2-2.9-4.2-3.1l-3.6-0.1C107,29.4,106.8,29.4,106.6,29.4 M109.5,22.7c2,0,3-1.8,3-5c0-3.2-1-5-3-5
			c-2,0-3,1.8-3,5C106.5,20.9,107.5,22.7,109.5,22.7"/>
		<path class="st0" d="M122.1,19.3v1c0,4.6,2.2,7.1,5,7.1c2.4,0,4.2-1.2,5.4-4.2l0.1,0c-0.7,4.1-3.1,6.1-6.6,6.1
			c-3.7,0-7.1-2.6-7.1-8.4c0-6.5,4-8.7,7.2-8.7c3.3,0,6.4,1.9,6.4,6.3c0,0.3,0,0.6-0.1,0.9H122.1z M122.1,18.7h7v-0.1
			c0-3.8-0.9-6-3.1-6C123.7,12.6,122.4,15,122.1,18.7"/>
	</g>
</g>
</svg>
